<svg xmlns="http://www.w3.org/2000/svg" width="542" height="144" viewBox="0 0 542 144">
    <g fill="none" fill-rule="evenodd">
        <path fill="#000" d="M230.13 56.532c15.357 0 21.9 3.848 21.9 3.848v14.197h-1.735l-.14-.542c-2.188-8.036-9.446-15.778-20.025-15.778-8.68 0-12.552 9.42-.934 16.718l13.487 8.36c11.899 7.223 15.42 20.3 8.752 29.444l-.282.376c-.68.868-6.017 7.065-19.554 7.065-16.158 0-24.037-5.307-24.037-5.307V97.929h1.736c2.404 8.757 10.016 20.566 22.301 20.566 9.482 0 11.351-11.41 1.203-18.045l-13.488-8.094c-12.692-8.013-16.091-19.796-8.643-29.044l.328-.4c.76-.887 5.997-6.38 19.131-6.38zm127.745 2.653l25.842-2.653v50.552c0 6.37 1.199 7.298 6.793 7.961v1.592l-22.644 3.45c-3.522.52-3.723-2.395-3.73-2.517v-11.282c-2.132 7.298-10.923 13.932-20.647 13.932-10.523 0-19.181-4.379-19.181-20.3l-.002-31.363c-.04-5.79-.6-6.837-7.458-7.78v-1.592l27.174-2.653v42.99c0 7.43 2.664 11.012 9.99 11.012 3.73 0 7.992-2.521 10.124-7.961l.004-32.529c.033-6.943.133-8.517-6.265-9.267v-1.592zm64.086-2.653c22.159 0 33.106 14.33 33.106 31.844 0 17.382-10.947 31.844-33.106 31.844-22.027 0-33.107-14.462-33.107-31.844 0-17.514 11.08-31.844 33.107-31.844zm72.693 0c9.682 0 15.737 3.985 18.651 6.767l.272.265c2.266 2.123 3.332 6.104 2.399 9.42-1.6 4.91-6.93 7.696-11.86 6.104-4.851-1.566-7.51-6.6-6.072-11.312l.074-.231c.8-2.654 2.4-4.38 4.532-5.308 1.332-.663-.933-3.98-7.597-3.98-6.263 0-14.392 7.563-14.392 27.863 0 14.33 6.93 21.23 17.19 22.29 6.664.664 14.393-2.255 16.792-6.766l1.466.796c-.933 7.564-9.595 17.78-26.253 17.78-17.457 0-30.65-14.993-30.65-32.11 0-16.717 11.46-31.578 35.448-31.578zM200.06 25.1v26.52h-1.744c-1.593-24.399-37.357-24.774-38.072-24.78h-4.838v44.066l8.147-.001c2.076-.035 17.164-.775 18.538-14.866h1.743v31.476h-1.743c-1.431-14.551-17.75-14.862-18.729-14.867h-7.956v45.003l5.347.002c4.494-.025 36.688-1.074 39.307-25.986h1.743v27.725h-76.972v-1.741c5.632 0 7.777-7.5 7.777-16.609v-57.46c0-8.303-1.877-16.741-7.777-16.741V25.1h75.229zm111.333 34.248c4.658 4.003 5.056 11.208 1.064 15.745-4.062 4.599-10.834 5.316-15.487 1.388l-.217-.187c-2.395-2.002-3.726-4.67-3.726-7.339 0-1.601-4.79-.533-9.982 7.606l.003 27.902c.043 6.986.813 12.035 5.454 13.328v1.601h-30.477v-1.601c5.111-1.576 5.319-7.034 5.324-13.697V72.692c0-4.67-1.464-6.538-6.92-8.94v-1.734l26.616-5.471v16.946l.512-.779c7.933-11.975 12.473-13.799 15.991-15.366 3.594-1.601 8.65-.801 11.845 2zm110.567-1.092c-8.41 0-9.745 6.103-9.745 30.119l.006 2.797c.112 21.697 1.665 27.322 9.739 27.322 8.41 0 9.745-6.104 9.745-30.12l-.007-2.796c-.111-21.698-1.665-27.322-9.738-27.322z"/>
        <g>
            <path fill="#00FFB6" d="M75.68 91.419L84.412 89.978 84.412 10.297 24.044 20.263 75.68 30.755z" transform="translate(0 7.927)"/>
            <path fill="#000" d="M48.334 109.217L62.581 106.866 62.581 112.112z" transform="translate(0 7.927)"/>
            <path fill="#F9D336" d="M66.947 101.717L24.208 108.772 66.947 117.457z" transform="translate(0 7.927)"/>
            <path fill="#F9D336" d="M24.208 108.772l42.74-7.055-42.74 7.055zM66.947 37.897L8.732 26.068 8.732 102.472 66.947 92.861zM75.68 30.755L24.044 20.263 75.68 30.755z" transform="translate(0 7.927)"/>
            <path fill="#000" d="M21.302 19.706L3.268 16.042 3.268 16.042zM0 15.378V112.769l75.68 15.378v-27.872l17.464-2.884V.001L0 15.378zm84.412-5.081v14.191l-21.834 3.605-38.533-7.83 60.367-9.966zM3.268 16.042L0 15.378l13.326 2.707-10.058-2.043zm8.836 1.795l9.198 1.87-5.832-1.186-3.366-.684zM8.732 87.312V26.068L38.37 32.09l18.034 3.664 10.543 2.142V92.862l-58.215 9.61v-15.16zm66.948-54.74l8.732-1.442v15.202l-8.732 1.441V32.572zm0 21.843l8.732-1.442v15.202l-8.732 1.44v-15.2zm0 21.843l8.732-1.441v15.162l-8.732 1.44V76.26zm-51.471 32.515l42.738-7.057v15.74l-42.738-8.683z" transform="translate(0 7.927)"/>
        </g>
    </g>
</svg>
