<?xml version="1.0" encoding="UTF-8"?>
<svg width="142px" height="194px" viewBox="0 0 142 194" version="1.1" xmlns="http://www.w3.org/2000/svg" xmlns:xlink="http://www.w3.org/1999/xlink">
    <!-- Generator: Sketch 63.1 (92452) - https://sketch.com -->
    <title>Group 9</title>
    <desc>Created with Sketch.</desc>
    <g id="Symbols" stroke="none" stroke-width="1" fill="none" fill-rule="evenodd">
        <g id="Logo" transform="translate(0.000000, -12.000000)">
            <g id="Group-9" transform="translate(0.000000, 12.000000)">
                <polygon id="Fill-1" fill="#00FFB6" points="114.636474 138.398828 127.863747 136.217431 127.863747 15.5880102 36.4214057 30.6759193 114.636474 46.5596693"></polygon>
                <polygon id="Fill-2" fill="#000000" points="73.2150489 165.342122 94.7953443 161.782883 94.7953443 169.72586"></polygon>
                <polygon id="Fill-3" fill="#F9D336" points="101.409201 153.987831 36.669417 164.668853 101.409201 177.816762"></polygon>
                <path d="M36.6695273,164.669294 L101.409311,153.988272 L36.6695273,164.669294 Z" id="Fill-4" fill="#F9D336"></path>
                <polygon id="Fill-5" fill="#F9D336" points="101.409201 57.3710909 13.227383 39.4635682 13.227383 155.130557 101.409201 140.581659"></polygon>
                <path d="M114.636474,46.5598898 L36.4214057,30.6761398 L114.636474,46.5598898 Z" id="Fill-6" fill="#F9D336"></path>
                <polygon id="Fill-7" fill="#000000" points="32.2673807 29.8325705 4.95085795 24.2859341 4.95085795 24.2859341"></polygon>
                <path d="M0,23.2798898 L0,25.1019466 L0,30.1294125 L0,58.1701284 L0,63.196492 L0,91.2394125 L0,96.2657761 L0,124.30539 L0,129.333958 L0,157.374674 L0,162.40214 L0,170.71989 L114.636364,193.99989 L114.636364,151.80489 L141.090909,147.43989 L141.090909,0.000992045455 L0,23.2798898 Z M127.863636,15.5882307 L127.863636,37.0726284 L94.7910455,42.5299807 L36.4223977,30.6761398 L127.863636,15.5882307 Z M4.95030682,24.2862648 L0,23.2798898 L20.1859205,27.379242 L4.95030682,24.2862648 Z M18.3341023,27.003367 L32.2668295,29.8329011 L23.4332159,28.0384011 L18.3341023,27.003367 Z M13.2272727,132.180026 L13.2272727,122.123992 L13.2272727,99.110742 L13.2272727,89.0569125 L13.2272727,66.0425602 L13.2272727,55.9876284 L13.2272727,39.463458 L58.1206364,48.5803557 L85.4382614,54.126992 L101.409091,57.3709807 L101.409091,74.5058102 L101.409091,84.560742 L101.409091,107.573992 L101.409091,117.628924 L101.409091,140.582651 L13.2272727,155.130447 L13.2272727,132.180026 Z M114.636364,49.3100602 L127.863636,47.1275602 L127.863636,70.1408102 L114.636364,72.3233102 L114.636364,49.3100602 Z M114.636364,82.378242 L127.863636,80.195742 L127.863636,103.208992 L114.636364,105.39039 L114.636364,82.378242 Z M114.636364,115.446424 L127.863636,113.263924 L127.863636,136.217651 L114.636364,138.399049 L114.636364,115.446424 Z M36.6704091,164.669515 L101.409091,153.98739 L101.409091,177.816322 L36.6704091,164.669515 Z" id="Fill-8" fill="#000000"></path>
            </g>
        </g>
    </g>
</svg>